<svg width="18" height="18" viewBox="0 0 18 18" fill="white" xmlns="http://www.w3.org/2000/svg">
<g clip-path="url(#clip0_101_14105)">
<path fill-rule="evenodd" clip-rule="evenodd" d="M8.9999 0.752563C4.28293 0.752563 0.462402 4.57309 0.462402 9.29006C0.462402 13.0679 2.90626 16.2588 6.29992 17.39C6.72679 17.4647 6.88687 17.2086 6.88687 16.9845C6.88687 16.7817 6.8762 16.1094 6.8762 15.3944C4.73115 15.7892 4.17622 14.8715 4.00547 14.3912C3.90942 14.1458 3.49322 13.3881 3.13037 13.1853C2.83156 13.0252 2.40468 12.6304 3.1197 12.6197C3.79203 12.609 4.27226 13.2387 4.43234 13.4948C5.20072 14.7861 6.42798 14.4232 6.91889 14.1991C6.99359 13.6442 7.2177 13.2707 7.46315 13.0572C5.56356 12.8438 3.57859 12.1074 3.57859 8.84184C3.57859 7.91339 3.90942 7.14502 4.45368 6.54739C4.36831 6.33395 4.0695 5.45886 4.53906 4.28495C4.53906 4.28495 5.25407 4.06084 6.88687 5.16005C7.56987 4.96795 8.29556 4.87191 9.02125 4.87191C9.74693 4.87191 10.4726 4.96795 11.1556 5.16005C12.7884 4.05017 13.5034 4.28495 13.5034 4.28495C13.973 5.45886 13.6742 6.33395 13.5888 6.54739C14.1331 7.14502 14.4639 7.90272 14.4639 8.84184C14.4639 12.1181 12.4683 12.8438 10.5687 13.0572C10.8782 13.324 11.1449 13.8363 11.1449 14.6367C11.1449 15.7786 11.1343 16.6963 11.1343 16.9845C11.1343 17.2086 11.2944 17.4754 11.7212 17.39C13.4161 16.8178 14.8888 15.7285 15.9321 14.2755C16.9755 12.8225 17.5369 11.0789 17.5374 9.29006C17.5374 4.57309 13.7169 0.752563 8.9999 0.752563Z" fill="black"/>
</g>
<defs>
<clipPath id="clip0_101_14105">
<rect x="0.462402" y="0.752563" width="17.075" height="17.075" rx="8.5375" fill="white"/>
</clipPath>
</defs>
</svg>
