<svg width="18" height="18" viewBox="0 0 18 18" fill="none" xmlns="http://www.w3.org/2000/svg">
<path d="M17.3711 7.61788H16.6834V7.58245H8.99975V10.9974H13.8246C13.1207 12.9853 11.2293 14.4123 8.99975 14.4123C6.1709 14.4123 3.87734 12.1188 3.87734 9.28992C3.87734 6.46106 6.1709 4.1675 8.99975 4.1675C10.3055 4.1675 11.4935 4.66011 12.398 5.46476L14.8128 3.04997C13.2881 1.62892 11.2485 0.752563 8.99975 0.752563C4.285 0.752563 0.462402 4.57516 0.462402 9.28992C0.462402 14.0047 4.285 17.8273 8.99975 17.8273C13.7145 17.8273 17.5371 14.0047 17.5371 9.28992C17.5371 8.71749 17.4782 8.15872 17.3711 7.61788Z" fill="#FFC107"/>
<path d="M1.44629 5.31621L4.25124 7.37328C5.01021 5.49421 6.8483 4.1675 8.99929 4.1675C10.3051 4.1675 11.493 4.66011 12.3976 5.46475L14.8124 3.04996C13.2876 1.62892 11.248 0.752563 8.99929 0.752563C5.72009 0.752563 2.8763 2.60389 1.44629 5.31621Z" fill="#FF3D00"/>
<path d="M8.99979 17.8276C11.205 17.8276 13.2087 16.9836 14.7237 15.6113L12.0813 13.3753C11.1954 14.0491 10.1128 14.4135 8.99979 14.4126C6.77923 14.4126 4.89375 12.9967 4.18344 11.0207L1.39941 13.1657C2.81235 15.9306 5.68175 17.8276 8.99979 17.8276Z" fill="#4CAF50"/>
<path d="M17.3711 7.61789H16.6834V7.58246H8.99976V10.9974H13.8246C13.4879 11.9435 12.8814 12.7703 12.08 13.3755L12.0813 13.3746L14.7236 15.6106C14.5367 15.7805 17.5371 13.5586 17.5371 9.28993C17.5371 8.7175 17.4782 8.15873 17.3711 7.61789Z" fill="#1976D2"/>
</svg>
